<?xml version="1.0" encoding="UTF-8"?>
<svg xmlns="http://www.w3.org/2000/svg" viewBox="0 0 233.76 233.76"><path fill="#EF9B11" d="M135.049 135.775c-15.7117,15.7117 -41.1891,15.7094 -56.8906,0.00779195 -15.7086,-15.7078 -15.7086,-41.1836 0,-56.893 15.7055,-15.7039 41.1789,-15.7 56.8828,0.00389598 15.7039,15.7055 15.7078,41.1774 0.00779195,56.8813zm86.4595 26.9352c-6.81718,-6.79692 -15.3922,-10.7428 -24.2727,-11.8648 -7.29483,-0.9101 -14.2297,-4.46713 -19.8188,-10.0127 -7.72806,-7.70702 -11.1713,-18.0018 -10.3937,-28.0619 0.598422,-7.64001 0.40674,-15.9665 -0.221292,-22.9528 -0.724652,-8.08961 2.70926,-16.3483 9.41268,-22.0123 3.70741,-3.10587 8.00468,-5.04139 12.4663,-5.84786 6.88575,-0.704393 13.5853,-3.68014 18.8604,-8.92413 12.1913,-12.1352 12.1913,-31.8091 0,-43.9373 -6.09097,-6.0637 -14.0793,-9.09633 -22.066,-9.09633 -7.98753,0 -15.9743,3.03263 -22.0614,9.09633 -5.09516,5.06321 -8.05454,11.4331 -8.89607,18.0314 -0.681017,5.41151 -3.34976,10.5659 -7.50989,14.7182 -5.77384,5.73955 -13.5416,8.75037 -21.0352,7.71949 -14.0286,-1.92461 -16.106,-1.77189 -31.0611,-0.337392 -8.20727,0.785429 -10.8861,-2.37109 -12.6783,-6.13928 -0.979449,-2.07344 -1.34255,-4.28246 -1.17191,-6.42213 0.523619,-3.23989 -0.0202591,-6.67225 -1.79682,-9.73059 -4.10714,-7.07276 -13.191,-9.49138 -20.2903,-5.39749 -7.10393,4.08065 -9.53657,13.131 -5.42632,20.1897 1.70566,2.96094 4.28324,5.09516 7.22626,6.292 2.41629,0.977111 4.47336,2.83315 5.87513,5.24944 1.92929,3.33262 3.59677,7.32288 -1.41736,12.6962 -12.9565,13.879 -19.0607,31.6166 -17.0153,49.0543 0.770624,8.19714 -5.53307,11.2009 -11.1285,13.3133 -3.2173,1.20775 -6.55537,1.48748 -9.73371,0.980228 -4.77023,-1.14931 -9.96435,-0.744132 -14.74,1.52177 -11.0404,5.25022 -15.721,18.4093 -10.4459,29.3944 5.26814,10.9843 18.4942,15.6447 29.5245,10.3991 4.6144,-2.18486 8.1013,-5.74968 10.2355,-9.96669 1.74774,-3.45573 4.75387,-6.27954 8.53219,-8.07247 5.22762,-2.48018 13.9577,-2.92354 18.3236,0.713743 12.5754,10.6547 28.5217,15.3096 44.0456,13.9219 10.8924,-0.972436 22.0099,3.61001 29.6281,12.5599 4.19129,4.93932 6.79692,10.6703 7.88,16.6249 0.938151,9.17814 4.95257,18.114 12.0152,25.1579 8.1387,8.09428 18.7919,12.1554 29.4551,12.1874l0.250901 0c10.6625,-0.031947 21.3149,-4.09311 29.4489,-12.1874 16.3319,-16.2595 16.3319,-42.6204 0,-58.8581z"/></svg>
