<?xml version="1.0" encoding="UTF-8"?>
<!DOCTYPE svg PUBLIC "-//W3C//DTD SVG 1.1//EN" "http://www.w3.org/Graphics/SVG/1.1/DTD/svg11.dtd">
<svg xmlns="http://www.w3.org/2000/svg" xml:space="preserve" width="800px" height="296px" style="shape-rendering:geometricPrecision; text-rendering:geometricPrecision; image-rendering:optimizeQuality; fill-rule:evenodd; clip-rule:evenodd"
viewBox="0 0 631.147 233.756"
 xmlns:xlink="http://www.w3.org/1999/xlink">
 <defs>
  <style type="text/css">
   <![CDATA[
    .fil1 {fill:#444C51}
    .fil0 {fill:#EF9B11}
   ]]>
  </style>
 </defs>
 <g id="Ebene_x0020_1">
  <metadata id="CorelCorpID_0Corel-Layer"/>
  <g id="_86045920">
   <path id="_84427896" class="fil0" d="M135.049 135.775c-15.7117,15.7117 -41.1891,15.7094 -56.8906,0.00779195 -15.7086,-15.7078 -15.7086,-41.1836 0,-56.893 15.7055,-15.7039 41.1789,-15.7 56.8828,0.00389598 15.7039,15.7055 15.7078,41.1774 0.00779195,56.8813zm86.4595 26.9352c-6.81718,-6.79692 -15.3922,-10.7428 -24.2727,-11.8648 -7.29483,-0.9101 -14.2297,-4.46713 -19.8188,-10.0127 -7.72806,-7.70702 -11.1713,-18.0018 -10.3937,-28.0619 0.598422,-7.64001 0.40674,-15.9665 -0.221292,-22.9528 -0.724652,-8.08961 2.70926,-16.3483 9.41268,-22.0123 3.70741,-3.10587 8.00468,-5.04139 12.4663,-5.84786 6.88575,-0.704393 13.5853,-3.68014 18.8604,-8.92413 12.1913,-12.1352 12.1913,-31.8091 0,-43.9373 -6.09097,-6.0637 -14.0793,-9.09633 -22.066,-9.09633 -7.98753,0 -15.9743,3.03263 -22.0614,9.09633 -5.09516,5.06321 -8.05454,11.4331 -8.89607,18.0314 -0.681017,5.41151 -3.34976,10.5659 -7.50989,14.7182 -5.77384,5.73955 -13.5416,8.75037 -21.0352,7.71949 -14.0286,-1.92461 -16.106,-1.77189 -31.0611,-0.337392 -8.20727,0.785429 -10.8861,-2.37109 -12.6783,-6.13928 -0.979449,-2.07344 -1.34255,-4.28246 -1.17191,-6.42213 0.523619,-3.23989 -0.0202591,-6.67225 -1.79682,-9.73059 -4.10714,-7.07276 -13.191,-9.49138 -20.2903,-5.39749 -7.10393,4.08065 -9.53657,13.131 -5.42632,20.1897 1.70566,2.96094 4.28324,5.09516 7.22626,6.292 2.41629,0.977111 4.47336,2.83315 5.87513,5.24944 1.92929,3.33262 3.59677,7.32288 -1.41736,12.6962 -12.9565,13.879 -19.0607,31.6166 -17.0153,49.0543 0.770624,8.19714 -5.53307,11.2009 -11.1285,13.3133 -3.2173,1.20775 -6.55537,1.48748 -9.73371,0.980228 -4.77023,-1.14931 -9.96435,-0.744132 -14.74,1.52177 -11.0404,5.25022 -15.721,18.4093 -10.4459,29.3944 5.26814,10.9843 18.4942,15.6447 29.5245,10.3991 4.6144,-2.18486 8.1013,-5.74968 10.2355,-9.96669 1.74774,-3.45573 4.75387,-6.27954 8.53219,-8.07247 5.22762,-2.48018 13.9577,-2.92354 18.3236,0.713743 12.5754,10.6547 28.5217,15.3096 44.0456,13.9219 10.8924,-0.972436 22.0099,3.61001 29.6281,12.5599 4.19129,4.93932 6.79692,10.6703 7.88,16.6249 0.938151,9.17814 4.95257,18.114 12.0152,25.1579 8.1387,8.09428 18.7919,12.1554 29.4551,12.1874l0.250901 0c10.6625,-0.031947 21.3149,-4.09311 29.4489,-12.1874 16.3319,-16.2595 16.3319,-42.6204 0,-58.8581z"/>
   <path id="_22604576" class="fil1" d="M258.32 76.9004l-41.4906 0c-4.94477,0 -9.20697,1.79215 -12.7749,5.36398 -3.57729,3.5804 -5.35931,7.89559 -5.35931,12.9292l0 24.261c0,5.04607 1.78202,9.36203 5.35931,12.9409 3.56794,3.57261 7.83014,5.35775 12.7749,5.35775l33.7431 0 0 -8.55011 -25.4236 0c-2.19889,0 -4.62297,-0.758936 -6.12915,-2.27369 -1.50541,-1.51086 -2.26123,-3.37392 -2.26123,-5.58371l0 -28.0409c0,-2.19421 0.75582,-4.05883 2.26123,-5.57514 1.50618,-1.51554 3.35444,-2.27525 5.54476,-2.27525l26.1529 0c2.10149,0 3.90611,0.759716 5.41151,2.27525 1.50229,1.51631 2.25499,3.38093 2.25499,5.57514l0 44.4484c5.04295,0 9.71735,0 18.0734,0l0 -19.0755 0 -23.4842c0,-5.0336 -1.76955,-9.34879 -5.29152,-12.9292 -3.52352,-3.57183 -7.80364,-5.36398 -12.8458,-5.36398z"/>
   <path id="_84858376" class="fil1" d="M434.331 76.9004l-41.4883 0c-4.94477,0 -9.20542,1.79215 -12.7788,5.36398 -3.57339,3.5804 -5.35775,7.89559 -5.35775,12.9292l0 24.261c0,5.04607 1.78436,9.36203 5.35775,12.9409 3.57339,3.57261 7.83403,5.35775 12.7788,5.35775l33.7454 0 0 -8.55011 -26.0095 0c-2.19655,0 -4.04091,-0.758936 -5.54787,-2.27369 -1.50618,-1.51086 -2.25343,-3.37392 -2.25343,-5.58371l0 -28.0409c0,-2.19421 0.747248,-4.05883 2.25343,-5.57514 1.50696,-1.51554 3.35132,-2.27525 5.54709,-2.27525l26.1584 0c2.09682,0 3.90065,0.759716 5.40372,2.27525 1.49839,1.51631 2.25733,3.38093 2.25733,5.57514l0 44.4484c5.04139,0 9.71968,0 18.0703,0l0.000779195 -19.0755 0 -23.4842c0,-5.0336 -1.77111,-9.34879 -5.2923,-12.9292 -3.52664,-3.57183 -7.80598,-5.36398 -12.845,-5.36398z"/>
   <path id="_67625792" class="fil1" d="M600.817 119.872l-5.5058 0c-1.75709,0 -3.23054,0.616344 -4.42349,1.84747 -1.18983,1.24204 -1.7867,2.71628 -1.7867,4.44531l0 5.28762c0,1.73137 0.596864,3.22197 1.7867,4.44843 1.19295,1.23502 2.66641,1.84124 4.42271,1.84124l5.50657 0c1.73994,0 3.23522,-0.606214 4.46947,-1.84124 1.24749,-1.22645 1.86929,-2.71628 1.86929,-4.44843l0 -5.28762c0,-1.72903 -0.621798,-3.20327 -1.86929,-4.44531 -1.23425,-1.23113 -2.72952,-1.84747 -4.46947,-1.84747z"/>
   <path id="_22605776" class="fil1" d="M600.817 56.6117l-5.76449 0c-1.75163,0 -3.22431,0.618681 -4.41492,1.85137 -1.19529,1.23736 -1.53657,2.71783 -1.53657,4.44921l0 45.1832c0,1.73605 0.596864,3.21262 1.7867,4.44999 1.19295,1.23191 2.66641,1.84825 4.42271,1.84825l5.50657 0c1.73994,0 3.23522,-0.616344 4.46947,-1.84825 1.24749,-1.23736 1.86929,-2.71394 1.86929,-4.44921l0 -45.184c0,-1.73215 -0.624136,-3.21184 -1.86929,-4.44921 -1.23425,-1.23269 -2.72407,-1.85137 -4.46947,-1.85137z"/>
   <path id="_22605296" class="fil1" d="M357.201 76.9004l-27.9279 39.9197 -4.59881 6.58732c-3.46586,5.45749 -7.19665,8.18779 -11.1931,8.18779 -2.13344,0 -3.93104,-0.770624 -5.39593,-2.31966 -1.47034,-1.54592 -2.19889,-3.36301 -2.19889,-5.46216l0 -28.6308 -0.00311678 0 0 -11.9848c0,-1.73371 -0.621019,-3.21574 -1.86072,-4.44765 -1.2397,-1.23347 -2.73264,-1.84981 -4.47804,-1.84981l-5.51437 0c-1.7454,0 -3.21574,0.616344 -4.40869,1.84981 -1.19607,1.23191 -1.78981,2.71394 -1.78981,4.44765l0 24.1519c0,0 0,0.00389598 0,0.00779195l0 12.2264c0,5.02114 1.7789,9.29502 5.32424,12.8404 3.55157,3.55703 7.78494,5.32892 12.7001,5.32892l9.42047 0c6.73147,0 11.2835,-0.413753 13.6531,-1.24827 4.82166,-1.66982 9.46411,-5.8463 13.9258,-12.531l32.6311 -47.0735 -18.2854 0z"/>
   <path id="_84698864" class="fil1" d="M572.558 129.203c-2.19655,0 -4.04091,-0.758936 -5.54709,-2.27369 -1.51476,-1.51086 -2.25421,-3.37392 -2.25421,-5.58371l-0.00233759 -28.1056c0,-2.0898 0.53297,-3.90533 2.03915,-5.46372 1.52021,-1.5506 3.32872,-2.34616 5.4458,-2.34616l7.60027 0 0 -8.52985c0,0 -5.47852,0 -15.3135,0 -7.01743,0 -12.0892,4.21155 -14.426,6.63173 0.264147,-0.515048 0.571929,-1.05036 0.93971,-1.60514 0.000779195,0 5.17074,-8.40129 13.717,-9.47813l0 -5.38034 -0.0163631 0 0 -4.15623c0,-1.73215 -0.621019,-3.21184 -1.86384,-4.44921 -1.23658,-1.23269 -2.73498,-1.85137 -4.47492,-1.85137l-5.76683 0c-1.75397,0 -3.21886,0.618681 -4.41258,1.85137 -1.20074,1.23736 -1.53891,2.71783 -1.53891,4.44921l0 58.1467 0.0771404 0c0.340508,4.3596 2.09136,8.14181 5.28061,11.3365 3.57339,3.57261 7.83403,5.35775 12.7788,5.35775l16.9685 0 0 -8.55011 -9.23035 0z"/>
   <path id="_84322736" class="fil1" d="M479.827 77.0149c-5.12399,0 -9.42904,1.58255 -12.9035,4.75543 -3.47989,3.17678 -5.21204,7.2099 -5.21204,12.1025 0,4.80452 1.70722,10.3212 5.14035,13.4536 3.42534,3.12535 7.75222,4.68998 12.9635,4.68998l31.9283 0c2.19577,0 4.04325,0.734002 5.54398,2.24408 1.51164,1.49839 2.25421,3.34119 2.25421,5.51904l0 1.92617c0,2.08591 -0.742573,3.8765 -2.25421,5.37957 -1.51164,1.50618 -3.36768,2.2472 -5.55255,2.2472l-24.1784 0c-2.19655,0 -4.04636,-0.778416 -5.55333,-2.30096 -1.51398,-1.51086 -2.25655,-3.37703 -2.25655,-5.57826l0 -1.8989 -18.0734 0c0,5.05308 1.78358,9.36749 5.35697,12.9456 3.57105,3.57027 7.83481,5.25334 12.7796,5.25334l39.6875 0c5.12399,0 9.4345,-1.58099 12.9058,-4.75933 3.48612,-3.17288 5.21983,-7.20756 5.21983,-12.1025 0.000779195,-4.80296 -1.71813,-9.51398 -5.14269,-12.6463 -3.4308,-3.12457 -7.75144,-4.68686 -12.9689,-4.68686l-31.9307 -0.000779195c-2.18486,0 -4.03234,-0.748028 -5.54398,-2.24408 -1.50073,-1.50151 -2.25187,-3.34197 -2.25187,-5.51982l0.000779195 -2.7342c0,-2.08201 0.750365,-3.88195 2.25889,-5.37801 1.50385,-1.50229 3.35132,-2.2511 5.54476,-2.2511l24.1488 0.00233759c2.19577,0 4.04013,0.66855 5.54943,2.1911 1.51164,1.5132 2.25655,3.37392 2.25655,5.5806l0 1.88955 18.0797 0c0,-5.04919 -1.78202,-9.36125 -5.35775,-12.9417 -3.57651,-3.56872 -7.8426,-5.25178 -12.7882,-5.25178l-39.6509 0.114542z"/>
   <path id="_67039216" class="fil1" d="M620.905 53.6725l-1.04178 0 0 -2.77082c0.230642,-0.0584397 0.634265,-0.119217 1.2171,-0.119217 1.38307,0 2.01812,0.592189 2.01812,1.47658 0,1.00282 -0.981786,1.41346 -2.19344,1.41346zm2.5916 0.708289l0 -0.118438c1.09711,-0.352196 1.95734,-1.11737 1.95734,-2.29707 0,-0.945164 -0.40674,-1.64956 -0.97867,-2.06565 -0.635044,-0.469855 -1.44073,-0.768287 -3.22119,-0.768287 -1.55917,0 -2.76848,0.18389 -3.63417,0.298432l0 9.66904 2.18798 0 0 -3.83364 1.04178 0c1.20386,0 1.78124,0.467517 1.95968,1.47112 0.289082,1.17814 0.458946,2.00409 0.748028,2.36252l2.29785 0c-0.167527,-0.35843 -0.401286,-0.885945 -0.68725,-2.36252 -0.285965,-1.29658 -0.753482,-2.06175 -1.67137,-2.35551z"/>
   <path id="_84323880" class="fil1" d="M621.366 61.8058c-4.20532,0 -7.36963,-3.41833 -7.36963,-7.72261 0,-4.24272 3.16431,-7.71949 7.25743,-7.71949l0.0545437 0c4.14532,0 7.25976,3.47677 7.25976,7.78338 0,4.24038 -3.11444,7.72183 -7.2021,7.65871zm0.00545437 -17.5506l-0.0631148 0c-5.50034,0 -9.8989,4.31518 -9.8989,9.82799 0,5.51203 4.39856,9.88799 9.8989,9.88799 5.50891,0 9.83812,-4.37596 9.83812,-9.88799 0,-5.51281 -4.32921,-9.82799 -9.77501,-9.82799z"/>
   <path id="_22602896" class="fil1" d="M106.588 82.3298c-13.8276,0 -25.0441,11.2087 -25.0441,25.0441 0,9.7002 5.51904,18.1062 13.5853,22.2725 1.80695,1.00906 3.88896,1.5919 6.10422,1.5919 6.51953,0 11.8749,-4.97984 12.4702,-11.3404 -0.357651,0 -7.06341,-0.00155839 -7.11561,-0.00155839 -6.91614,0 -12.5232,-5.61177 -12.5232,-12.5225 0,-6.9177 5.60709,-12.5225 12.5232,-12.5225 6.91926,0 12.524,5.60475 12.524,12.5225 0,0.197136 0,8.82595 0,8.8314l0 0c0,4.4118 0,8.23843 0,12.5232 6.9177,0 12.5225,-5.60553 12.5225,-12.5232 0,0 0,-8.63427 0,-8.8314 0,-13.8354 -11.2095,-25.0441 -25.0465,-25.0441z"/>
   <path id="_84780688" class="fil1" d="M433.143 202.24c0.73634,1.22957 1.56151,1.84202 2.47395,1.84202 1.64956,0 3.47755,-0.757378 5.48632,-2.27369 2.01032,-1.51631 3.75261,-3.65365 5.23697,-6.40732 1.48203,-2.75212 2.22071,-5.04139 2.22071,-6.86705 0.000779195,-1.73371 -0.274277,-2.60407 -0.815818,-2.60407 -2.78484,0 -5.91877,2.03993 -9.3932,6.11746 -3.46898,4.07753 -5.20892,7.47638 -5.20892,10.1927zm-3.10354 -18.6781c1.70176,-10.0851 2.9251,-16.0577 3.67001,-17.9153 0.744911,-1.85994 2.04773,-2.79186 3.90611,-2.79186 1.43762,0 2.15759,1.27243 2.15759,3.81728 0,1.73371 -0.719977,5.34216 -2.15759,10.8129 -0.753482,2.70069 -1.66592,6.78601 -2.73264,12.2622 2.17473,-2.89627 4.54661,-5.24009 7.11172,-7.02756 2.57212,-1.78825 4.8653,-2.68433 6.88263,-2.68433 1.64956,0 3.02094,0.708289 4.11493,2.12019 1.10022,1.41268 1.64644,3.07393 1.64644,4.98529 0.000779195,5.40372 -2.07266,10.4802 -6.22343,15.2341 -4.14766,4.75153 -8.55401,7.12964 -13.2191,7.12964 -1.40411,0 -2.71004,-0.381027 -3.92247,-1.14386 -1.20619,-0.764391 -1.89111,-1.74228 -2.05084,-2.93679 -0.0685692,-0.646732 -0.200253,-1.07841 -0.395831,-1.28801 -0.191682,-0.209604 -0.392715,-0.437908 -0.601539,-0.681796 -0.511152,-0.526736 -0.764391,-1.26152 -0.764391,-2.21214 0,-1.08698 0.271939,-3.35054 0.816597,-6.78601l1.76176 -10.8939z"/>
   <path id="_85536760" class="fil1" d="M464.556 195.401c2.77082,-0.558683 5.21516,-1.7454 7.326,-3.54924 2.11707,-1.80929 3.17522,-3.44716 3.17522,-4.92296 0,-0.579721 -0.165189,-1.0636 -0.489335,-1.46021 -0.324145,-0.391935 -0.739457,-0.59063 -1.24827,-0.59063 -1.528,0 -3.21886,1.12204 -5.07958,3.36612 -1.85838,2.24642 -3.08717,4.6331 -3.68404,7.15691zm17.6566 4.65725c0,1.82254 -1.53424,4.00195 -4.60505,6.53901 -3.07003,2.53394 -6.53355,3.80092 -10.396,3.80092 -2.9625,0 -5.29385,-0.934255 -6.99562,-2.80199 -1.70098,-1.86617 -2.55109,-4.47024 -2.55109,-7.80131 0.000779195,-4.90971 1.73449,-9.51631 5.20892,-13.8112 3.47521,-4.29804 7.18029,-6.44784 11.13,-6.44784 1.96591,0 3.54378,0.622577 4.73673,1.86851 1.19061,1.24515 1.7867,2.72718 1.7867,4.44531 0,3.05445 -1.46489,5.95929 -4.39544,8.72387 -2.92744,2.76225 -6.67926,4.67128 -11.2594,5.72319 -0.527515,0.120775 -0.788546,0.434791 -0.788546,0.945164 0,0.84309 0.373235,1.64566 1.11892,2.40771 0.744911,0.762832 1.74228,1.1462 2.98744,1.1462 3.5243,0 7.02055,-1.81708 10.495,-5.44658 0.665433,-0.703614 1.31684,-1.05503 1.94877,-1.05503 1.05036,0 1.57787,0.59063 1.57865,1.7641z"/>
   <path id="_84860672" class="fil1" d="M515.333 195.718l-0.4457 4.70868c-0.140255,1.50852 -0.208824,3.00068 -0.208824,4.4718 0,1.33398 0.120775,2.87757 0.368559,4.6331 -0.176098,0.612448 -0.616344,1.1384 -1.31684,1.57865 -0.700497,0.437908 -1.43762,0.655303 -2.2098,0.655303 -2.40538,0 -3.60378,-1.52489 -3.60378,-4.57699 0,-1.35035 0.376351,-4.57699 1.12983,-9.68306 0.525178,-3.66378 0.788546,-6.39096 0.788546,-8.18155 0,-0.105191 -0.101295,-0.225967 -0.316353,-0.36778 -1.20931,-0.770624 -1.81397,-1.50618 -1.81397,-2.2098 0,-0.912438 0.676342,-1.9028 2.02903,-2.97419 0.645953,-0.507256 1.04724,-1.10022 1.19529,-1.77423 0.14571,-0.676342 0.363105,-1.74228 0.643615,-3.19704 0.948281,-5.59462 2.41629,-9.57242 4.40635,-11.9295 1.99007,-2.36252 4.52167,-3.54066 7.58936,-3.54066 1.78981,0 3.30145,0.582838 4.54115,1.74774 1.23658,1.16723 1.85215,2.61186 1.85215,4.32999 0.000779195,1.54281 -0.354534,3.14327 -1.0636,4.80218 -0.712185,1.65891 -1.64644,2.48563 -2.80355,2.48563 -0.505698,0 -0.937372,-0.161293 -1.28957,-0.486218 -0.351417,-0.324145 -0.524399,-0.748807 -0.524399,-1.27476l0.158956 -2.29239c0,-2.73264 -0.568813,-4.10169 -1.70955,-4.10169 -1.42125,0 -2.75134,1.78202 -3.9887,5.35229 -1.23658,3.57027 -1.85293,6.60914 -1.85293,9.11659 0.000779195,0.263368 0.165189,0.394273 0.500243,0.394273 3.62871,0 6.19382,-0.0163631 7.69456,-0.0506477 1.50073,-0.0374014 2.24798,0.54232 2.24798,1.73371 0.000779195,1.16022 -0.906984,2.01344 -2.72095,2.56667 -1.81397,0.553229 -3.72455,0.829843 -5.72319,0.829843 -1.34957,0.119996 -2.22616,0.236096 -2.63056,0.340508 -0.420766,2.5955 -0.730885,4.88556 -0.923347,6.86627l0 0.0272718z"/>
   <path id="_85651008" class="fil1" d="M534.671 196.061l0.448037 -0.84309c2.12487,-4.26298 4.40869,-7.72261 6.85536,-10.3773 2.44667,-2.65784 4.83491,-3.98948 7.1686,-3.98948 1.78747,0 3.25236,0.49401 4.3822,1.47658 1.12983,0.982566 1.69553,2.14746 1.69553,3.49781 0,0.839973 -0.192461,1.56462 -0.577384,2.17162 -0.38726,0.603876 -0.923347,0.906984 -1.60514,0.906984 -1.09087,0 -2.07811,-0.448037 -2.97419,-1.34177 -0.635044,-0.579721 -1.13217,-0.869582 -1.50073,-0.869582 -1.31372,0 -3.51573,2.04539 -6.59979,6.13071 -3.09029,4.0861 -4.94789,8.6818 -5.5806,13.7871 -0.191682,1.47112 -0.621019,2.502 -1.28879,3.09263 -0.670887,0.585176 -1.57242,0.880491 -2.71082,0.880491 -1.21165,0 -2.06954,-0.690367 -2.57836,-2.06721 -0.508035,-1.3745 -0.763612,-3.62638 -0.763612,-6.74861 0,-1.28022 0.0350638,-3.00614 0.10675,-5.18087 0.0693484,-2.05318 0.271939,-4.56375 0.604656,-7.52703 0.0857115,-0.770624 0.151164,-1.3745 0.184669,-1.81475 0.156618,-1.71813 0.338171,-2.89861 0.538424,-3.53755 0.201032,-0.63894 0.670887,-1.24048 1.41034,-1.80462 0.734002,-0.557904 1.5506,-0.839973 2.44356,-0.839973 0.948281,0 1.66826,0.27116 2.15525,0.81348 0.494789,0.544658 0.739457,1.14386 0.739457,1.79293 0,0.822051 -0.395831,2.53161 -1.18516,5.12711 -0.277394,0.896854 -0.51349,1.96513 -0.705951,3.21106l-0.662316 4.05337z"/>
   <path id="_85154168" class="fil1" d="M561.588 195.401c2.77082,-0.558683 5.21438,-1.7454 7.32522,-3.54924 2.11707,-1.80929 3.17522,-3.44716 3.17522,-4.92296 0,-0.579721 -0.168306,-1.0636 -0.489335,-1.46021 -0.324145,-0.391935 -0.742573,-0.59063 -1.25061,-0.59063 -1.52566,0 -3.21652,1.12204 -5.07724,3.36612 -1.86072,2.24642 -3.08717,4.6331 -3.68326,7.15691zm17.6558 4.65725c0,1.82254 -1.53424,4.00195 -4.60738,6.53901 -3.07003,2.53394 -6.53433,3.80092 -10.3937,3.80092 -2.9625,0 -5.29385,-0.934255 -6.99562,-2.80199 -1.70098,-1.86617 -2.55342,-4.47024 -2.55342,-7.80131 0,-4.90971 1.73683,-9.51631 5.21204,-13.8112 3.47132,-4.29804 7.17951,-6.44784 11.1269,-6.44784 1.96591,0 3.54612,0.622577 4.73595,1.86851 1.19373,1.24515 1.78981,2.72718 1.78981,4.44531 0,3.05445 -1.46489,5.95929 -4.39232,8.72387 -2.93055,2.76225 -6.68316,4.67128 -11.2625,5.72319 -0.527515,0.120775 -0.791663,0.434791 -0.791663,0.945164 0,0.84309 0.374014,1.64566 1.12204,2.40771 0.741794,0.762832 1.73994,1.1462 2.9851,1.1462 3.5243,0 7.02289,-1.81708 10.4973,-5.44658 0.665433,-0.703614 1.3145,-1.05503 1.94643,-1.05503 1.05581,0 1.58021,0.59063 1.58099,1.7641z"/>
   <path id="_85157864" class="fil1" d="M589.505 195.401c2.7677,-0.558683 5.21126,-1.7454 7.32522,-3.54924 2.11084,-1.80929 3.16977,-3.44716 3.16977,-4.92296 0,-0.579721 -0.162073,-1.0636 -0.486997,-1.46021 -0.324145,-0.391935 -0.741794,-0.59063 -1.24749,-0.59063 -1.52878,0 -3.22197,1.12204 -5.08035,3.36612 -1.8576,2.24642 -3.08639,4.6331 -3.68014,7.15691zm17.6503 4.65725c0,1.82254 -1.53424,4.00195 -4.60193,6.53901 -3.07003,2.53394 -6.53433,3.80092 -10.3929,3.80092 -2.96328,0 -5.29775,-0.934255 -7.00185,-2.80199 -1.70098,-1.86617 -2.54797,-4.47024 -2.54797,-7.80131 0,-4.90971 1.73449,-9.51631 5.20658,-13.8112 3.47443,-4.29804 7.18496,-6.44784 11.13,-6.44784 1.96513,0 3.543,0.622577 4.73595,1.86851 1.19061,1.24515 1.7867,2.72718 1.7867,4.44531 0,3.05445 -1.46255,5.95929 -4.39232,8.72387 -2.92744,2.76225 -6.68238,4.67128 -11.2594,5.72319 -0.527515,0.120775 -0.789325,0.434791 -0.789325,0.945164 0.000779195,0.84309 0.371676,1.64566 1.11892,2.40771 0.744911,0.762832 1.73994,1.1462 2.9851,1.1462 3.52742,0 7.02601,-1.81708 10.495,-5.44658 0.66855,-0.703614 1.31684,-1.05503 1.94955,-1.05503 1.05269,0 1.57787,0.59063 1.57787,1.7641z"/>
  </g>
 </g>
</svg>
